<?xml version="1.0" standalone="no"?>
<!DOCTYPE svg PUBLIC "-//W3C//DTD SVG 20010904//EN"
 "http://www.w3.org/TR/2001/REC-SVG-20010904/DTD/svg10.dtd">
<svg version="1.0" xmlns="http://www.w3.org/2000/svg"
 width="1104.000000pt" height="1104.000000pt" viewBox="0 0 1104.000000 1104.000000"
 preserveAspectRatio="xMidYMid meet">
<metadata>
Created by potrace 1.14, written by Peter Selinger 2001-2017
</metadata>
<g transform="translate(0.000000,1104.000000) scale(0.100000,-0.100000)"
fill="#000000" stroke="none">
<path d="M316 10063 c-3 -3 -44 -5 -91 -5 l-86 1 5 -27 c2 -15 12 -61 21 -102
9 -41 18 -86 21 -100 2 -14 8 -43 14 -65 5 -22 17 -74 25 -115 20 -94 23 -108
42 -195 8 -38 16 -79 18 -90 1 -11 3 -20 5 -20 1 0 3 -9 4 -20 2 -11 6 -33 10
-50 8 -36 15 -71 22 -105 3 -14 10 -45 15 -70 6 -25 13 -56 15 -70 2 -14 7
-36 10 -50 4 -14 8 -34 10 -45 2 -11 13 -63 24 -115 11 -52 22 -103 25 -115 2
-11 6 -29 9 -40 17 -74 25 -116 31 -155 4 -24 9 -48 11 -52 3 -4 7 -18 9 -30
3 -13 10 -48 16 -78 6 -30 13 -66 14 -80 2 -14 4 -26 5 -27 2 -2 3 -6 4 -10 1
-5 6 -24 11 -43 5 -19 10 -42 11 -50 2 -8 5 -26 8 -40 3 -14 8 -41 11 -60 3
-19 11 -52 16 -73 6 -21 12 -51 14 -67 2 -16 6 -34 10 -40 3 -5 8 -24 10 -42
3 -18 9 -55 16 -83 6 -27 13 -59 15 -70 2 -11 8 -40 15 -65 11 -45 12 -51 24
-125 4 -22 9 -47 12 -55 3 -8 7 -26 9 -40 2 -14 6 -36 10 -50 12 -43 13 -46
31 -150 3 -19 8 -39 12 -45 6 -11 6 -10 16 -75 4 -24 9 -48 12 -53 3 -5 6 -21
8 -35 1 -15 13 -72 25 -127 12 -55 24 -113 27 -130 2 -16 9 -47 14 -68 6 -21
12 -50 14 -65 3 -15 12 -58 21 -97 9 -38 18 -79 20 -90 6 -33 90 -428 100
-470 3 -11 7 -35 9 -54 3 -19 10 -40 15 -46 5 -7 7 -14 4 -17 -3 -3 2 -37 12
-74 9 -38 17 -80 19 -94 2 -14 4 -25 5 -25 2 0 10 -35 14 -60 2 -11 6 -31 9
-45 4 -14 9 -36 11 -50 3 -14 14 -70 26 -125 12 -55 23 -109 26 -120 4 -20 52
-247 59 -275 12 -56 38 -180 42 -205 6 -33 7 -39 16 -75 4 -14 9 -36 12 -50 2
-14 10 -47 15 -75 6 -27 13 -61 15 -75 2 -14 5 -25 6 -25 1 0 3 -9 4 -20 2
-11 8 -42 14 -70 6 -27 14 -61 17 -75 3 -14 12 -54 20 -88 8 -35 12 -68 8 -73
-3 -5 -1 -9 4 -9 5 0 9 -6 9 -12 1 -19 12 -76 28 -143 8 -33 21 -94 29 -135 9
-41 20 -90 25 -108 5 -18 10 -35 10 -37 -1 -7 12 -85 17 -105 19 -83 46 -210
49 -232 2 -15 6 -31 8 -35 3 -5 8 -28 12 -53 4 -25 9 -48 12 -53 3 -4 6 -18 8
-30 2 -21 18 -100 31 -157 3 -14 10 -45 15 -70 9 -49 16 -81 25 -120 3 -14 8
-42 11 -62 3 -21 10 -38 15 -38 5 0 7 -4 3 -9 -3 -5 0 -31 6 -58 6 -26 12 -57
15 -68 2 -11 8 -40 14 -65 5 -25 12 -56 14 -70 2 -14 11 -54 20 -90 8 -36 17
-77 20 -93 3 -15 7 -35 10 -45 3 -9 7 -33 10 -52 3 -19 10 -50 15 -68 5 -18
10 -35 10 -37 1 -3 1 -6 2 -7 0 -2 2 -14 4 -28 2 -14 13 -69 25 -124 12 -54
23 -108 26 -120 2 -11 7 -34 11 -51 7 -32 10 -46 17 -85 2 -14 14 -68 26 -120
12 -52 23 -110 26 -129 2 -18 6 -36 9 -40 2 -4 7 -23 10 -42 3 -19 13 -63 20
-99 8 -36 17 -76 19 -90 3 -14 5 -25 6 -25 2 0 5 -14 14 -65 4 -19 8 -42 10
-50 3 -13 138 -15 1136 -18 624 -1 1137 1 1142 6 4 4 10 25 14 47 3 22 8 43
11 47 4 8 11 38 18 78 2 14 9 40 14 59 6 18 10 36 9 40 0 3 0 8 2 11 1 3 4 16
7 30 7 39 11 55 13 55 1 0 4 11 6 24 4 21 22 102 40 174 15 64 27 126 23 129
-1 2 3 13 9 25 7 12 14 35 16 50 2 15 13 67 25 115 11 47 23 101 26 119 3 18
8 35 10 39 2 4 7 22 10 41 3 19 12 59 20 89 8 30 16 66 19 80 3 14 15 66 26
115 11 50 23 101 26 115 3 14 10 43 16 65 5 22 12 50 14 63 3 12 14 62 25 110
12 48 23 98 25 112 3 14 7 31 10 39 4 13 39 162 50 216 6 29 13 62 20 87 3 13
7 33 9 45 2 11 6 30 9 41 4 11 8 29 10 39 3 10 11 48 20 84 8 37 17 78 20 90
3 13 14 61 25 107 12 45 20 86 19 90 -1 4 2 14 5 22 5 13 92 384 102 438 2 9
4 18 5 20 3 2 4 6 13 52 12 60 15 73 32 145 32 133 35 145 41 185 3 19 9 40
12 45 4 6 7 15 7 20 1 11 9 50 30 140 8 33 17 71 19 85 2 14 5 25 6 25 3 0 17
64 26 110 2 17 10 48 16 70 10 41 19 78 23 105 1 8 5 22 8 30 3 8 17 67 31
130 40 179 95 418 112 490 9 36 18 76 21 90 2 14 9 43 15 65 6 22 12 45 12 50
4 35 40 175 45 175 4 0 12 -28 19 -62 16 -75 35 -160 57 -248 8 -36 18 -76 21
-90 8 -41 26 -115 55 -235 6 -22 11 -47 13 -55 1 -8 6 -31 11 -50 5 -19 10
-38 11 -42 1 -5 3 -10 4 -13 1 -3 3 -13 5 -22 1 -10 5 -31 9 -48 37 -147 48
-194 53 -220 8 -44 11 -60 13 -62 2 -2 4 -7 5 -13 1 -5 3 -11 5 -12 1 -2 3
-12 5 -23 5 -35 14 -79 24 -113 5 -18 10 -36 11 -40 0 -4 3 -16 5 -27 3 -11 7
-31 9 -45 3 -14 5 -25 6 -25 2 0 10 -36 12 -57 1 -10 5 -18 8 -18 3 0 6 -8 6
-17 1 -10 4 -29 7 -43 11 -45 19 -85 22 -100 1 -8 5 -22 8 -30 4 -8 9 -26 11
-40 3 -14 8 -36 11 -50 4 -14 8 -34 9 -45 2 -11 4 -20 6 -20 1 0 3 -9 5 -20 2
-11 5 -27 8 -35 7 -27 63 -267 72 -310 2 -8 15 -63 29 -123 31 -129 37 -158
38 -174 1 -7 5 -13 10 -13 5 0 7 -4 4 -8 -3 -5 -1 -26 5 -47 11 -38 15 -57 24
-107 3 -15 9 -38 15 -52 5 -15 8 -26 6 -26 -2 0 2 -20 10 -45 7 -25 10 -45 7
-45 -3 0 0 -6 6 -13 6 -8 8 -16 6 -19 -3 -3 -1 -17 5 -32 5 -15 12 -41 15 -59
3 -18 13 -59 22 -92 8 -33 17 -69 19 -80 7 -36 12 -60 23 -105 7 -25 14 -56
17 -70 2 -14 7 -32 10 -40 3 -8 8 -26 10 -40 3 -14 12 -54 21 -90 8 -36 17
-74 19 -85 1 -11 17 -76 34 -145 18 -69 33 -134 35 -145 1 -11 8 -40 14 -65 7
-25 14 -54 15 -65 2 -11 9 -40 16 -65 13 -48 18 -70 26 -110 3 -14 7 -33 10
-42 3 -10 7 -28 10 -40 4 -26 7 -39 29 -128 9 -35 18 -74 20 -85 2 -11 4 -20
5 -20 1 0 3 -7 5 -15 8 -38 15 -72 20 -96 3 -15 22 -90 41 -168 19 -77 37
-152 39 -166 2 -14 15 -68 28 -120 l23 -95 1132 -3 1132 -2 10 25 c5 14 9 29
9 33 -1 4 0 10 1 15 4 12 21 91 26 122 1 6 3 12 4 15 3 9 8 34 15 75 4 22 9
43 11 46 2 4 6 24 10 44 3 21 7 45 9 54 2 9 29 135 60 281 32 146 59 276 62
290 2 14 8 41 13 60 5 19 12 49 14 65 3 17 8 40 11 53 17 76 38 176 40 197 2
11 10 47 19 80 8 33 17 76 20 95 3 19 8 46 11 60 4 14 8 34 10 45 1 11 8 38
13 60 6 22 14 56 17 75 3 19 9 44 12 55 3 11 7 30 9 42 1 12 9 51 18 85 15 61
25 110 31 153 2 11 14 70 28 130 14 61 28 126 31 146 3 20 10 48 15 62 5 14 7
27 4 30 -3 3 -1 12 3 19 4 7 9 19 9 28 1 8 7 40 14 70 6 30 13 66 16 80 4 21
15 72 20 90 1 3 5 23 10 45 4 22 10 49 12 60 2 11 6 34 9 50 3 17 9 44 14 60
5 17 12 44 15 60 3 17 8 44 11 60 4 17 8 39 9 50 2 11 4 21 5 23 2 1 3 5 4 10
5 21 19 90 22 107 2 11 10 51 19 88 8 37 18 82 21 100 8 45 12 62 14 62 1 0 3
11 5 25 2 14 10 59 20 100 26 117 27 124 30 145 2 11 4 20 5 20 2 0 4 9 6 20
1 11 5 31 9 45 3 14 8 36 11 50 2 14 16 76 29 137 14 62 25 116 24 120 -1 5 0
11 1 16 1 4 4 12 5 17 1 6 3 11 5 13 1 1 3 9 5 17 1 8 8 42 15 75 7 33 13 65
14 70 15 74 30 141 41 190 8 33 16 73 19 89 7 40 28 143 41 199 3 12 8 38 11
57 3 19 8 38 10 41 2 3 6 19 8 35 3 16 8 40 11 54 4 14 8 34 10 45 1 11 10 52
18 90 9 39 18 83 21 98 6 27 12 55 20 92 3 11 18 85 35 165 17 80 44 208 61
285 17 77 32 151 35 165 3 14 12 54 19 90 8 36 17 82 20 104 4 21 8 41 11 45
2 4 6 20 9 36 5 27 21 105 31 153 25 116 31 142 41 196 2 16 6 32 8 35 2 3 7
24 10 46 4 22 13 67 21 100 8 33 17 76 20 95 3 19 10 51 15 70 5 19 11 46 14
60 2 14 7 36 10 50 3 14 8 37 10 53 3 15 7 35 10 45 3 9 7 28 10 42 2 14 14
70 26 125 11 55 23 112 25 127 3 14 12 53 20 85 8 32 16 74 17 93 2 19 6 37 9
40 4 3 9 21 12 40 3 19 13 69 22 110 9 41 19 86 21 100 3 14 7 32 9 40 2 8 7
31 10 50 3 19 11 53 17 75 5 22 11 49 13 60 3 27 33 169 39 186 3 8 8 30 11
49 9 50 13 72 20 100 3 14 8 39 11 55 3 17 8 37 11 45 3 8 7 24 8 35 2 18 16
83 30 145 3 14 8 36 11 50 2 14 11 54 19 90 8 36 17 80 20 99 3 19 8 38 11 43
4 7 -521 15 -551 8 -5 -1 -57 -1 -115 0 -58 1 -112 2 -120 2 -8 -1 -170 -1
-360 0 -190 0 -352 0 -360 -1 -8 0 -62 0 -120 0 -58 1 -114 1 -125 0 -11 -1
-110 -2 -220 -4 l-199 -2 -7 -40 c-4 -22 -10 -58 -13 -79 -4 -21 -9 -48 -12
-60 -3 -12 -7 -34 -9 -51 -2 -16 -4 -31 -6 -32 -3 -4 -11 -48 -25 -138 -2 -11
-5 -31 -8 -45 -6 -26 -25 -125 -32 -170 -3 -14 -7 -36 -9 -50 -3 -14 -8 -36
-10 -50 -3 -14 -7 -38 -10 -55 -2 -16 -7 -41 -9 -55 -3 -13 -8 -40 -11 -60 -6
-38 -12 -70 -20 -110 -7 -35 -14 -70 -21 -105 -2 -16 -7 -43 -11 -60 -3 -16
-7 -41 -8 -55 -2 -14 -4 -25 -5 -25 -1 0 -3 -11 -6 -25 -2 -14 -7 -36 -11 -50
-3 -14 -6 -28 -5 -32 1 -4 -5 -38 -12 -75 -16 -73 -28 -143 -32 -183 -1 -14
-3 -25 -4 -25 -2 0 -4 -9 -6 -20 -5 -35 -13 -79 -18 -105 -3 -13 -8 -42 -12
-65 -3 -22 -12 -69 -20 -104 -8 -35 -13 -66 -10 -68 3 -3 1 -13 -3 -22 -5 -9
-12 -32 -15 -51 -3 -19 -8 -52 -11 -74 -4 -21 -9 -48 -11 -60 -2 -11 -7 -37
-10 -56 -4 -19 -8 -44 -10 -55 -19 -102 -34 -185 -39 -210 -2 -16 -7 -40 -9
-51 -2 -12 -7 -38 -10 -58 -3 -21 -13 -70 -20 -109 -8 -40 -17 -85 -20 -102
-3 -16 -8 -43 -12 -60 -3 -16 -7 -43 -9 -60 -1 -16 -4 -30 -5 -30 -1 0 -3 -11
-6 -25 -11 -63 -13 -76 -17 -95 -6 -28 -20 -106 -23 -130 -1 -11 -5 -31 -8
-45 -7 -29 -16 -74 -21 -110 -2 -14 -6 -35 -9 -46 -2 -12 -7 -37 -10 -55 -3
-19 -12 -70 -21 -114 -8 -44 -17 -89 -19 -100 -1 -11 -6 -40 -11 -65 -4 -25
-9 -54 -11 -65 -3 -11 -11 -56 -19 -100 -8 -44 -17 -91 -20 -105 -2 -13 -7
-40 -10 -60 -3 -20 -8 -47 -11 -60 -3 -14 -7 -38 -9 -55 -2 -16 -5 -30 -6 -30
-2 0 -7 -29 -13 -70 -2 -16 -5 -30 -6 -30 -1 0 -3 -11 -5 -25 -3 -28 -9 -61
-30 -165 -8 -38 -17 -86 -20 -105 -3 -19 -7 -46 -10 -60 -3 -14 -7 -38 -10
-55 -3 -16 -7 -41 -10 -55 -3 -14 -8 -41 -11 -60 -3 -19 -7 -42 -9 -50 -2 -8
-7 -30 -10 -47 -3 -18 -7 -48 -10 -65 -3 -18 -8 -40 -10 -48 -2 -8 -7 -33 -10
-55 -4 -22 -9 -50 -11 -62 -2 -13 -6 -33 -8 -45 -4 -26 -16 -93 -23 -123 -2
-11 -6 -31 -8 -45 -2 -14 -7 -36 -10 -50 -3 -14 -8 -41 -11 -60 -8 -52 -13
-81 -20 -115 -4 -16 -7 -35 -7 -42 -1 -22 -14 -4 -16 22 -3 49 -4 55 -14 55
-6 0 -8 3 -5 6 3 3 0 31 -8 63 -15 66 -24 109 -28 131 -2 8 -6 26 -9 40 -14
54 -37 156 -41 180 -3 14 -8 36 -11 50 -7 26 -14 60 -20 97 -2 12 -6 26 -9 31
-3 6 -8 25 -11 43 -2 19 -7 43 -9 54 -5 19 -29 125 -40 176 -3 13 -15 65 -26
114 -11 50 -22 99 -25 110 -2 11 -11 49 -19 85 -19 86 -56 249 -62 279 -3 12
-12 52 -20 88 -8 36 -13 68 -10 71 3 3 1 11 -5 18 -6 7 -12 23 -14 36 -6 42
-24 125 -45 208 -11 44 -18 85 -15 90 4 6 1 10 -6 10 -7 0 -10 3 -7 6 4 3 2
20 -3 37 -5 18 -12 48 -15 67 -3 19 -8 38 -10 41 -2 3 -6 21 -9 40 -3 19 -10
50 -15 69 -5 19 -11 47 -14 63 -3 15 -7 35 -10 45 -3 9 -8 31 -11 47 -14 70
-16 81 -21 97 -3 9 -6 25 -8 35 -2 10 -18 82 -36 161 -18 79 -33 149 -34 155
-3 12 -8 35 -27 112 -5 22 -11 51 -13 65 -3 14 -5 25 -6 25 -1 0 -3 11 -6 25
-2 14 -13 66 -24 115 -11 50 -22 99 -24 110 -2 11 -9 40 -16 65 -13 48 -15 59
-24 111 -3 19 -10 48 -15 66 -5 17 -7 34 -3 37 3 3 0 6 -7 6 -7 0 -10 4 -7 8
3 5 -4 47 -15 93 -12 46 -23 98 -26 114 -7 43 -11 60 -13 60 -1 0 -4 14 -6 30
-3 17 -14 68 -25 115 -31 130 -49 212 -55 245 -3 17 -8 37 -11 45 -3 8 -7 22
-8 30 -1 8 -11 58 -23 110 -12 52 -24 106 -26 120 -3 14 -5 25 -6 25 -1 0 -3
7 -5 15 -9 42 -16 78 -21 100 -2 14 -7 36 -11 50 -3 14 -7 31 -9 39 -1 7 -7
34 -13 60 -6 25 -13 57 -15 71 -3 14 -5 25 -6 25 -1 0 -3 7 -5 15 -2 8 -6 26
-9 40 -3 14 -8 39 -11 55 -3 17 -8 38 -11 47 -3 10 -7 30 -10 44 -3 15 -11 53
-19 86 -7 32 -10 58 -7 58 3 0 1 5 -6 12 -7 7 -12 26 -12 43 0 17 -5 36 -12
43 -7 7 -9 12 -6 12 3 0 -2 37 -12 82 -10 45 -16 86 -14 90 3 4 0 8 -7 8 -7 0
-9 3 -6 7 4 3 0 14 -9 24 -12 13 -22 16 -39 9 -13 -5 -25 -7 -27 -5 -2 2 -19
5 -38 5 -37 1 -724 2 -750 1 -8 0 -62 0 -120 0 -58 1 -112 1 -120 1 -8 -1
-118 -1 -245 -1 -126 1 -236 0 -242 0 -7 0 -24 -1 -38 -1 -14 0 -33 0 -42 0
-10 0 -57 1 -105 1 -47 0 -89 -4 -92 -9 -3 -5 -8 -22 -10 -38 -3 -16 -8 -40
-11 -54 -8 -35 -14 -62 -19 -85 -2 -11 -16 -72 -30 -135 -14 -63 -28 -126 -31
-140 -2 -14 -11 -55 -19 -91 -8 -36 -17 -77 -20 -90 -18 -94 -58 -277 -63
-289 -3 -8 -7 -22 -8 -30 -1 -8 -7 -37 -13 -65 -7 -27 -14 -63 -17 -80 -7 -36
-13 -60 -15 -60 -1 0 -3 -11 -5 -25 -6 -32 -13 -65 -15 -65 -1 0 -3 -13 -6
-30 -2 -16 -13 -68 -24 -115 -11 -47 -22 -97 -24 -111 -2 -15 -6 -31 -9 -35
-3 -5 -8 -26 -11 -46 -3 -20 -15 -79 -27 -130 -11 -51 -23 -104 -25 -118 -3
-14 -10 -43 -15 -65 -12 -46 -16 -68 -23 -110 -2 -16 -7 -37 -10 -45 -3 -8 -8
-27 -11 -42 -3 -16 -8 -40 -11 -55 -4 -16 -7 -35 -8 -43 -1 -9 -5 -21 -10 -28
-4 -6 -5 -12 -2 -12 2 0 0 -15 -5 -32 -5 -18 -12 -48 -15 -67 -10 -57 -13 -73
-24 -105 -5 -17 -12 -44 -14 -61 -3 -16 -7 -41 -10 -55 -24 -106 -32 -142 -47
-215 -6 -27 -12 -61 -15 -75 -2 -14 -7 -32 -10 -40 -3 -8 -8 -28 -11 -45 -7
-41 -11 -60 -13 -60 -2 0 -5 -13 -13 -60 -4 -16 -15 -70 -27 -120 -11 -49 -22
-101 -24 -115 -2 -14 -9 -45 -15 -70 -11 -43 -17 -72 -26 -115 -2 -11 -11 -51
-19 -90 -9 -38 -25 -113 -37 -165 -26 -121 -27 -125 -29 -125 -1 0 -3 -9 -4
-20 -2 -11 -13 -65 -25 -120 -13 -55 -25 -110 -27 -123 -3 -13 -16 -76 -31
-140 -14 -64 -27 -129 -28 -143 -1 -14 -4 -30 -7 -35 -5 -9 -25 -89 -32 -134
-3 -14 -5 -25 -6 -25 -2 0 -6 -19 -15 -65 -3 -19 -12 -60 -20 -90 -7 -30 -16
-71 -19 -91 -3 -20 -8 -42 -10 -50 -3 -8 -7 -25 -10 -39 -2 -14 -12 -56 -20
-95 -17 -73 -23 -100 -30 -137 -3 -13 -7 -32 -10 -43 -5 -20 -31 -141 -40
-185 -6 -30 -10 -46 -31 -135 -9 -38 -18 -83 -20 -99 -7 -50 -22 -50 -31 0 -2
16 -10 56 -16 89 -6 33 -12 71 -14 85 -2 14 -10 61 -19 104 -8 44 -18 93 -21
110 -3 17 -12 67 -21 111 -8 44 -16 89 -17 100 -1 11 -8 45 -14 75 -6 30 -13
69 -16 85 -3 17 -7 41 -10 55 -3 14 -10 52 -15 85 -6 33 -14 71 -17 85 -3 14
-9 50 -14 80 -9 52 -11 66 -25 135 -4 17 -8 41 -10 55 -2 14 -6 36 -9 50 -4
14 -8 42 -11 64 -3 21 -7 41 -9 45 -2 3 -7 29 -10 56 -4 28 -9 57 -12 66 -2
10 -7 30 -9 45 -3 25 -10 64 -30 164 -3 14 -7 41 -11 60 -3 19 -9 55 -14 80
-19 88 -22 105 -25 135 -2 17 -4 30 -5 30 -1 0 -3 9 -5 20 -7 50 -17 101 -20
115 -2 8 -7 31 -10 50 -3 19 -8 46 -10 60 -9 44 -15 74 -25 130 -11 64 -17 96
-24 130 -3 13 -8 42 -11 65 -3 22 -8 47 -11 56 -3 10 -6 30 -8 45 -2 16 -7 40
-10 54 -7 31 -14 71 -22 130 -3 25 -10 53 -15 63 -6 9 -8 17 -6 17 3 0 0 21
-5 48 -5 26 -11 65 -14 87 -2 22 -7 47 -10 55 -3 8 -8 26 -10 40 -4 24 -14 81
-20 107 -1 6 -5 31 -9 55 -8 50 -12 71 -20 113 -4 17 -13 66 -21 110 -20 106
-21 113 -29 160 -8 47 -12 71 -20 105 -3 14 -7 39 -9 55 -3 17 -10 55 -16 85
-6 30 -13 66 -15 80 -3 14 -7 36 -10 50 -11 55 -14 77 -19 110 -3 19 -8 46
-12 60 -3 14 -6 32 -6 40 0 8 -11 66 -24 128 -13 62 -23 116 -22 120 1 4 -1
21 -5 37 -4 17 -9 42 -12 58 -3 15 -7 39 -10 55 -3 15 -10 52 -15 82 -6 30
-12 66 -15 80 -3 14 -7 39 -10 55 -3 17 -8 44 -12 60 -3 17 -7 39 -9 50 -1 11
-5 34 -8 50 -3 17 -15 80 -26 140 -12 61 -24 124 -26 140 -6 36 -10 54 -23
120 -5 27 -7 53 -5 57 2 3 0 9 -6 13 -6 4 -8 10 -5 15 3 5 1 11 -3 14 -5 3
-135 5 -288 5 -154 0 -324 1 -379 2 -55 1 -107 1 -115 1 -8 -1 -118 -1 -245
-1 -126 1 -236 0 -242 0 -7 0 -24 -1 -38 -1 -39 0 -54 0 -67 -1 -7 -1 -60 -1
-118 0 -58 0 -130 1 -160 0 -30 0 -106 0 -168 1 -62 1 -116 0 -119 -3 -3 -3
-15 -2 -28 3 -13 5 -26 6 -29 3z"/>
</g>
</svg>
